<?xml version="1.0" standalone="no"?>
<!DOCTYPE svg PUBLIC "-//W3C//DTD SVG 20010904//EN"
 "http://www.w3.org/TR/2001/REC-SVG-20010904/DTD/svg10.dtd">
<svg version="1.0" xmlns="http://www.w3.org/2000/svg"
 width="128.000000pt" height="128.000000pt" viewBox="0 0 128.000000 128.000000"
 preserveAspectRatio="xMidYMid meet">
<metadata>
Created by potrace 1.11, written by Peter Selinger 2001-2013
</metadata>
<g transform="translate(0.000000,128.000000) scale(0.100000,-0.100000)"
fill="#000000" stroke="none">
<path d="M0 946 l1 -304 52 -49 c29 -26 90 -82 136 -123 46 -41 93 -84 105
-95 93 -83 188 -169 225 -201 24 -22 58 -54 76 -72 39 -38 44 -39 76 -11 23
20 177 159 209 189 9 8 39 35 66 60 27 25 97 88 154 141 58 53 122 111 143
129 l37 32 0 304 0 304 -640 0 -640 0 0 -304z"/>
</g>
</svg>
